<svg width="1653" height="993" xmlns="http://www.w3.org/2000/svg" xmlns:xlink="http://www.w3.org/1999/xlink" xml:space="preserve" overflow="hidden"><defs><clipPath id="clip0"><rect x="755" y="599" width="1653" height="993"/></clipPath><clipPath id="clip1"><rect x="756" y="599" width="1650" height="990"/></clipPath><clipPath id="clip2"><rect x="756" y="599" width="1650" height="990"/></clipPath><clipPath id="clip3"><rect x="756" y="599" width="1650" height="990"/></clipPath><clipPath id="clip4"><rect x="756" y="599" width="1650" height="990"/></clipPath><clipPath id="clip5"><rect x="756" y="599" width="1650" height="990"/></clipPath><clipPath id="clip6"><rect x="756" y="599" width="1650" height="990"/></clipPath><clipPath id="clip7"><rect x="756" y="599" width="1650" height="990"/></clipPath><clipPath id="clip8"><rect x="756" y="599" width="1650" height="990"/></clipPath></defs><g clip-path="url(#clip0)" transform="translate(-755 -599)"><rect x="756" y="600" width="1650" height="990" fill="#FFFFFF"/><g clip-path="url(#clip1)"><path d="M1581.25 650.128C1639.19 650.128 1696.41 662.967 1748.8 687.723L1581.25 1042.29Z" stroke="#FFFFFF" stroke-width="6.875" stroke-linejoin="round" stroke-miterlimit="10" fill="#4472C4" fill-rule="evenodd"/></g><g clip-path="url(#clip2)"><path d="M1748.8 687.722C1944.62 780.257 2028.35 1014.02 1935.82 1209.84 1843.28 1405.66 1609.52 1489.39 1413.7 1396.86 1217.88 1304.32 1134.15 1070.56 1226.68 874.74 1291.49 737.599 1429.57 650.128 1581.25 650.128L1581.25 1042.29Z" stroke="#FFFFFF" stroke-width="6.875" stroke-linejoin="round" stroke-miterlimit="10" fill="#ED7D31" fill-rule="evenodd"/></g><g clip-path="url(#clip3)"><text fill="#FFFFFF" font-family="Calibri,Calibri_MSFontService,sans-serif" font-weight="400" font-size="41" transform="matrix(1 0 0 1 1598.98 865)">7%</text></g><g clip-path="url(#clip4)"><text fill="#FFFFFF" font-family="Calibri,Calibri_MSFontService,sans-serif" font-weight="400" font-size="41" transform="matrix(1 0 0 1 1502.67 1247)">93%</text></g><g clip-path="url(#clip5)"><rect x="1495.5" y="1512.5" width="22" height="22" stroke="#FFFFFF" stroke-width="6.875" stroke-linejoin="round" stroke-miterlimit="10" fill="#4472C4"/></g><g clip-path="url(#clip6)"><text fill="#595959" font-family="Calibri,Calibri_MSFontService,sans-serif" font-weight="400" font-size="41" transform="matrix(1 0 0 1 1527.27 1535)">yes</text></g><g clip-path="url(#clip7)"><rect x="1608.5" y="1512.5" width="22" height="22" stroke="#FFFFFF" stroke-width="6.875" stroke-linejoin="round" stroke-miterlimit="10" fill="#ED7D31"/></g><g clip-path="url(#clip8)"><text fill="#595959" font-family="Calibri,Calibri_MSFontService,sans-serif" font-weight="400" font-size="41" transform="matrix(1 0 0 1 1640.55 1535)">no</text></g><rect x="756.5" y="600.5" width="1650" height="990" stroke="#D9D9D9" stroke-width="3.4375" stroke-linejoin="round" stroke-miterlimit="10" fill="none"/></g></svg>