<?xml version="1.0" encoding="UTF-8" standalone="no"?>
<svg
   xmlns:dc="http://purl.org/dc/elements/1.1/"
   xmlns:cc="http://creativecommons.org/ns#"
   xmlns:rdf="http://www.w3.org/1999/02/22-rdf-syntax-ns#"
   xmlns:svg="http://www.w3.org/2000/svg"
   xmlns="http://www.w3.org/2000/svg"
   xmlns:sodipodi="http://sodipodi.sourceforge.net/DTD/sodipodi-0.dtd"
   xmlns:inkscape="http://www.inkscape.org/namespaces/inkscape"
   width="59.540535mm"
   height="50.556126mm"
   viewBox="0 0 59.540535 50.556126"
   version="1.1"
   id="svg8"
   inkscape:version="1.0.2-2 (e86c870879, 2021-01-15)"
   sodipodi:docname="icon.svg">
  <defs
     id="defs2" />
  <sodipodi:namedview
     id="base"
     pagecolor="#ffffff"
     bordercolor="#666666"
     borderopacity="1.0"
     inkscape:pageopacity="0.0"
     inkscape:pageshadow="2"
     inkscape:zoom="2.8"
     inkscape:cx="138.42321"
     inkscape:cy="156.80026"
     inkscape:document-units="mm"
     inkscape:current-layer="layer1"
     inkscape:document-rotation="0"
     showgrid="false"
     inkscape:window-width="2560"
     inkscape:window-height="1377"
     inkscape:window-x="1912"
     inkscape:window-y="-8"
     inkscape:window-maximized="1"
     inkscape:snap-global="false"
     fit-margin-top="0"
     fit-margin-left="0"
     fit-margin-right="0"
     fit-margin-bottom="0" />
  <metadata
     id="metadata5">
    <rdf:RDF>
      <cc:Work
         rdf:about="">
        <dc:format>image/svg+xml</dc:format>
        <dc:type
           rdf:resource="http://purl.org/dc/dcmitype/StillImage" />
        <dc:title></dc:title>
      </cc:Work>
    </rdf:RDF>
  </metadata>
  <g
     inkscape:label="Layer 1"
     inkscape:groupmode="layer"
     id="layer1"
     transform="translate(-1.2546491,-1.2199076)">
    <g
       id="g976"
       transform="translate(-9.1659226,-26.363839)">
      <g
         id="g896"
         transform="matrix(0.3896312,0,0,0.389337,-0.41713006,8.9639211)"
         style="stroke-width:0.820157">
        <path
           style="fill:#ffd21e;fill-opacity:1;stroke:none;stroke-width:4.34;stroke-linecap:butt;stroke-linejoin:round;stroke-miterlimit:4;stroke-dasharray:none;stroke-opacity:1;stop-color:#000000"
           d="M 98.267291,160.44899 C 86.038727,159.80925 78.182955,158.62758 70.300765,156.24229 63.440383,154.1662 57.271791,150.71807 54.4358,147.37408 l -0.830418,-0.97917 v -36.9599 c 0,-20.327943 0.0258,-36.959898 0.05735,-36.959898 0.03155,0 0.491195,0.289707 1.021448,0.643792 1.395429,0.931821 5.728262,3.028954 7.940141,3.843106 7.088814,2.609264 16.495582,4.525824 26.6965,5.43922 8.478985,0.759215 19.085449,0.841165 27.262069,0.210639 16.17367,-1.247203 29.736,-4.709421 36.9835,-9.441213 0.58594,-0.382549 1.09507,-0.695544 1.13143,-0.695544 0.0363,0 0.0661,16.734378 0.0661,37.187508 v 37.1875 l -0.70426,1.05309 c -3.28986,4.91934 -12.16769,8.96315 -24.02181,10.94182 -4.62149,0.77143 -9.52577,1.27502 -15.13103,1.55373 -2.5159,0.12511 -14.51588,0.16133 -16.639506,0.0502 z"
           id="path883" />
        <path
           style="fill:none;stroke:#ffac03;stroke-width:4.34;stroke-linecap:butt;stroke-linejoin:miter;stroke-miterlimit:4;stroke-dasharray:none;stroke-opacity:1"
           d="m 53.53327,119.01448 c 0,0 6.206905,15.81964 52.50002,15.81964 46.29312,0 48.87932,-15.81964 48.87932,-15.81964"
           id="path869"
           sodipodi:nodetypes="csc" />
        <path
           style="fill:none;stroke:#ffac03;stroke-width:4.34;stroke-linecap:butt;stroke-linejoin:miter;stroke-miterlimit:4;stroke-dasharray:none;stroke-opacity:1"
           d="m 53.330174,145.21397 c 0,0 6.224122,15.81965 52.645706,15.81965 46.42159,0 49.01496,-15.81965 49.01496,-15.81965"
           id="path871"
           sodipodi:nodetypes="csc" />
        <path
           style="fill:none;stroke:#ffac03;stroke-width:4.34;stroke-linecap:butt;stroke-linejoin:miter;stroke-miterlimit:4;stroke-dasharray:none;stroke-opacity:1"
           d="m 53.533271,92.727864 c 0,0 6.206895,15.819646 52.500029,15.819646 46.29313,0 48.87933,-15.819646 48.87933,-15.819646"
           id="path873"
           sodipodi:nodetypes="csc" />
        <ellipse
           style="fill:#ffd21e;fill-opacity:1;stroke:#ffac03;stroke-width:4.34;stroke-linecap:butt;stroke-linejoin:round;stroke-miterlimit:4;stroke-dasharray:none;stroke-opacity:1;stop-color:#000000"
           id="path877"
           ry="16.045748"
           rx="50.592407"
           cy="66.040192"
           cx="104.1729" />
        <path
           style="fill:#ffac03;fill-opacity:1;stroke:#ffac03;stroke-width:4.34;stroke-linecap:butt;stroke-linejoin:miter;stroke-miterlimit:4;stroke-dasharray:none;stroke-opacity:1"
           d="M 53.513885,65.370316 V 146.24088"
           id="path879" />
        <path
           style="fill:#ffac03;fill-opacity:1;stroke:#ffac03;stroke-width:4.34;stroke-linecap:butt;stroke-linejoin:miter;stroke-miterlimit:4;stroke-dasharray:none;stroke-opacity:1"
           d="M 154.8615,65.370308 V 146.24088"
           id="path881" />
      </g>
      <g
         id="g900"
         transform="matrix(0.3194382,0,0,0.3194382,77.952829,17.60292)">
        <path
           style="fill:#ffd21e;fill-opacity:1;stroke:#ffac03;stroke-width:5.29167;stroke-linecap:butt;stroke-linejoin:round;stroke-miterlimit:4;stroke-dasharray:none;stroke-opacity:1"
           d="m -134.65765,177.4347 c -4.15021,5.9723 -11.69304,11.35896 -27.72921,8.8199 -16.03617,-2.53906 -40.12007,-10.88649 -42.76313,-13.36348 -1.87306,-1.75537 -4.49476,-4.84725 -2.93996,-7.61718 0.8868,-1.57988 2.13815,-4.34313 7.08264,-4.07586 3.80402,1.14723 16.97161,7.28309 16.97161,7.28309 0,0 -18.57523,-8.01808 -22.38382,-10.35669 -1.9377,-1.67044 -3.0736,-5.14494 -1.67043,-8.0849 1.86784,-3.91356 6.5481,-4.81085 10.15624,-2.93997 3.60814,1.87089 19.37704,11.49259 19.37704,11.49259 0,0 -23.62093,-13.75628 -24.85607,-15.368 -0.98218,-1.28164 -4.56177,-3.98233 -1.33634,-9.2208 3.30166,-5.36228 9.40307,-3.40293 12.2944,-1.20271 3.65926,2.7846 21.9161,17.63979 21.9161,17.63979 0,0 -13.81163,-10.6199 -19.37704,-17.90706 -1.45492,-3.6019 -1.25668,-9.21269 2.57009,-12.03523 4.28296,-3.15902 10.65975,0.008 16.53968,8.96163 5.87993,8.95353 11.89349,18.17433 11.89349,18.17433 0,0 -6.45754,-9.04779 -8.28536,-15.50163 -0.53021,-1.87212 1.25943,-9.09297 7.08265,-9.48807 4.19127,-0.28437 7.89451,2.85393 9.35443,6.94901 1.79872,5.04543 2.53906,8.68626 5.61266,12.6953 3.0736,4.00904 11.22532,10.69078 12.6953,14.56619 1.46999,3.87541 4.04575,11.58476 -2.20497,20.57975 z"
           id="path849"
           sodipodi:nodetypes="sssscccsscsssccsscssssss" />
        <path
           style="fill:#ffd21e;fill-opacity:1;stroke:#ffac03;stroke-width:5.29167;stroke-linecap:butt;stroke-linejoin:round;stroke-miterlimit:4;stroke-dasharray:none;stroke-opacity:1"
           d="m -101.76986,177.4347 c 4.150205,5.9723 11.693035,11.35896 27.729205,8.8199 16.03617,-2.53906 40.12007,-10.88649 42.76312,-13.36348 1.87306,-1.75537 4.49476,-4.84725 2.93997,-7.61718 -0.88681,-1.57988 -2.13816,-4.34313 -7.08265,-4.07586 -3.80401,1.14723 -16.97161,7.28309 -16.97161,7.28309 0,0 18.57523,-8.01808 22.38382,-10.35669 1.93771,-1.67044 3.0736,-5.14494 1.67044,-8.0849 -1.86784,-3.91356 -6.54811,-4.81085 -10.15625,-2.93997 -3.60813,1.87089 -19.37704,11.49259 -19.37704,11.49259 0,0 23.62093,-13.75628 24.85607,-15.368 0.98219,-1.28164 4.56178,-3.98233 1.33635,-9.2208 -3.30166,-5.36228 -9.40307,-3.40293 -12.2944,-1.20271 -3.65926,2.7846 -21.9161,17.63979 -21.9161,17.63979 0,0 13.81163,-10.6199 19.37704,-17.90706 1.45492,-3.6019 1.25667,-9.21269 -2.5701,-12.03523 -4.28296,-3.15902 -10.65974,0.008 -16.53967,8.96163 -5.87993,8.95353 -11.8935,18.17433 -11.8935,18.17433 0,0 6.45755,-9.04779 8.28536,-15.50163 0.53021,-1.87212 -1.25943,-9.09297 -7.08264,-9.48807 -4.19127,-0.28437 -7.89452,2.85393 -9.35444,6.94901 -1.79872,5.04543 -2.53906,8.68626 -5.61266,12.6953 -3.0736,4.00904 -11.225315,10.69078 -12.695295,14.56619 -1.46998,3.87541 -4.04574,11.58476 2.20498,20.57975 z"
           id="path851"
           sodipodi:nodetypes="sssscccsscsssccsscssssss" />
      </g>
      <g
         id="g921"
         transform="matrix(0.3194382,0,0,0.3194382,9.9514596,-5.5597433)">
        <path
           style="fill:#3a3b45;fill-opacity:1;stroke:#3a3b45;stroke-width:0.264583px;stroke-linecap:butt;stroke-linejoin:miter;stroke-opacity:1"
           d="m 72.113204,167.90689 c -1.37017,0.42523 -2.51162,2.33904 -2.95294,3.33092 -0.38094,0.85618 -0.68508,1.86626 -1.86626,2.10249 -1.18118,0.23624 -2.83482,-0.8032 -3.40178,-1.37016 -0.56697,-0.56697 -3.02382,-3.07106 -3.44904,-5.29167 -0.42522,-2.22061 -0.79984,-5.47828 0.75931,-8.02962 1.55916,-2.55134 3.89452,-4.27823 5.52455,-4.91606 2.18978,-0.85687 5.2942,-1.61514 8.31547,-0.0945 3.56715,1.79538 4.70207,3.56147 5.76414,6.04761 0.61061,1.42935 0.82682,3.92151 0.66146,5.52791 -0.16703,1.62264 -0.75596,3.40178 -1.27567,3.82701 -0.51972,0.42522 -1.46466,0.94494 -2.59859,0.33073 -1.13393,-0.61422 -3.82701,-2.07887 -5.48065,-1.46466 z"
           id="path902"
           sodipodi:nodetypes="ssssssssssssss" />
        <path
           style="fill:#3a3b45;fill-opacity:1;stroke:#3a3b45;stroke-width:0.264583px;stroke-linecap:butt;stroke-linejoin:miter;stroke-opacity:1"
           d="m 117.2153,167.90689 c 1.37017,0.42523 2.51162,2.33904 2.95294,3.33092 0.38094,0.85618 0.68508,1.86626 1.86626,2.10249 1.18118,0.23624 2.83482,-0.8032 3.40178,-1.37016 0.56697,-0.56697 3.02382,-3.07106 3.44904,-5.29167 0.42522,-2.22061 0.79984,-5.47828 -0.75931,-8.02962 -1.55916,-2.55134 -3.89452,-4.27823 -5.52455,-4.91606 -2.18978,-0.85687 -5.2942,-1.61514 -8.31547,-0.0945 -3.56715,1.79538 -4.70207,3.56147 -5.76414,6.04761 -0.61061,1.42935 -0.82682,3.92151 -0.66146,5.52791 0.16703,1.62264 0.75596,3.40178 1.27567,3.82701 0.51972,0.42522 1.46466,0.94494 2.59859,0.33073 1.13393,-0.61422 3.82701,-2.07887 5.48065,-1.46466 z"
           id="path904"
           sodipodi:nodetypes="ssssssssssssss" />
      </g>
      <g
         id="g917"
         transform="matrix(0.3194382,0,0,0.3194382,21.825932,39.17444)">
        <path
           style="fill:#3a3b45;fill-opacity:1;stroke:#3a3b45;stroke-width:0.264583px;stroke-linecap:butt;stroke-linejoin:miter;stroke-opacity:1"
           d="m 58.120447,75.903449 c 0,0 10.871856,0.39363 16.150216,-6.77037 5.27836,-7.16399 6.50624,-13.15231 6.66381,-14.80554 0.15755,-1.65323 0.74166,-4.40341 -0.91275,-4.87576 -1.65442,-0.47235 -4.12948,0.67178 -5.63076,1.60943 -6.44521,4.0255 -10.67703,5.16094 -16.270516,5.39711 -5.593493,0.23618 -11.060127,-1.4925 -18.671232,-5.39711 -1.322363,-0.67839 -3.466391,-2.47541 -4.726892,-1.60943 -1.260501,0.86598 -0.891045,3.92165 -0.708356,4.87576 1.20791,6.3084 4.964543,12.49299 7.319926,14.80554 4.413625,4.33337 10.011338,6.77037 16.786554,6.77037 z"
           id="path906"
           sodipodi:nodetypes="csssssssssc" />
        <path
           id="path910"
           style="fill:#ef4e4e;fill-opacity:1;stroke:#ef4e4e;stroke-width:0.264583px;stroke-linecap:butt;stroke-linejoin:miter;stroke-opacity:1"
           d="m 52.528867,59.205471 c -1.116267,-0.07112 -4.511842,1.607457 -6.800617,3.770312 -2.036601,1.924564 -4.440817,5.603422 -4.639363,5.911786 0.154168,0.170191 0.342929,0.341125 0.487455,0.483027 4.413631,4.333369 10.006925,6.73617 16.782145,6.73617 0,0 10.506944,0.369286 15.785302,-6.794713 0.05721,-0.07765 0.196597,-0.267789 0.252921,-0.345125 -0.0047,-0.0092 -1.865851,-3.659242 -4.029138,-5.991145 -2.16599,-2.334826 -6.260237,-3.590848 -7.441406,-3.732588 -1.181179,-0.14174 -2.929316,5.716818 -5.291666,5.858558 -2.362351,0.14174 -4.062947,-5.527829 -4.913395,-5.858558 -0.05315,-0.02067 -0.117819,-0.03298 -0.192238,-0.03772 z"
           sodipodi:nodetypes="sscccscssssss" />
      </g>
    </g>
  </g>
</svg>
