<svg width="1653" height="993" xmlns="http://www.w3.org/2000/svg" xmlns:xlink="http://www.w3.org/1999/xlink" xml:space="preserve" overflow="hidden"><defs><clipPath id="clip0"><rect x="1276" y="212" width="1653" height="993"/></clipPath><clipPath id="clip1"><rect x="1276" y="212" width="1650" height="990"/></clipPath><clipPath id="clip2"><rect x="1407" y="382" width="1472" height="461"/></clipPath><clipPath id="clip3"><rect x="1276" y="212" width="1650" height="990"/></clipPath><clipPath id="clip4"><rect x="1276" y="212" width="1650" height="990"/></clipPath><clipPath id="clip5"><rect x="1276" y="212" width="1650" height="990"/></clipPath><clipPath id="clip6"><rect x="1276" y="212" width="1650" height="990"/></clipPath><clipPath id="clip7"><rect x="1276" y="212" width="1650" height="990"/></clipPath><clipPath id="clip8"><rect x="1276" y="212" width="1650" height="990"/></clipPath><clipPath id="clip9"><rect x="1276" y="212" width="1650" height="990"/></clipPath><clipPath id="clip10"><rect x="1276" y="212" width="1650" height="990"/></clipPath><clipPath id="clip11"><rect x="1276" y="212" width="1650" height="990"/></clipPath><clipPath id="clip12"><rect x="1276" y="212" width="1650" height="990"/></clipPath><clipPath id="clip13"><rect x="1276" y="212" width="1650" height="990"/></clipPath><clipPath id="clip14"><rect x="1276" y="212" width="1650" height="990"/></clipPath><clipPath id="clip15"><rect x="1276" y="212" width="1650" height="990"/></clipPath><clipPath id="clip16"><rect x="1276" y="212" width="1650" height="990"/></clipPath><clipPath id="clip17"><rect x="1276" y="212" width="1650" height="990"/></clipPath><clipPath id="clip18"><rect x="1276" y="212" width="1650" height="990"/></clipPath><clipPath id="clip19"><rect x="1276" y="212" width="1650" height="990"/></clipPath><clipPath id="clip20"><rect x="1276" y="212" width="1650" height="990"/></clipPath><clipPath id="clip21"><rect x="1276" y="212" width="1650" height="990"/></clipPath><clipPath id="clip22"><rect x="1276" y="212" width="1650" height="990"/></clipPath><clipPath id="clip23"><rect x="1276" y="212" width="1650" height="990"/></clipPath><clipPath id="clip24"><rect x="1276" y="212" width="1650" height="990"/></clipPath><clipPath id="clip25"><rect x="1276" y="212" width="1650" height="990"/></clipPath><clipPath id="clip26"><rect x="1276" y="212" width="1650" height="990"/></clipPath><clipPath id="clip27"><rect x="1276" y="212" width="1650" height="990"/></clipPath><clipPath id="clip28"><rect x="1276" y="212" width="1650" height="990"/></clipPath><clipPath id="clip29"><rect x="1276" y="212" width="1650" height="990"/></clipPath></defs><g clip-path="url(#clip0)" transform="translate(-1276 -212)"><rect x="1277" y="213" width="1650" height="990" fill="#FFFFFF"/><g clip-path="url(#clip1)"><path d="M1407.5 794.526 2876.5 794.526M1407.5 748.525 2876.5 748.525M1407.5 702.523 2876.5 702.523M1407.5 656.522 2876.5 656.522M1407.5 611.52 2876.5 611.52M1407.5 565.519 2876.5 565.519M1407.5 519.517 2876.5 519.517M1407.5 474.516 2876.5 474.516M1407.5 428.514 2876.5 428.514M1407.5 382.5 2876.5 382.5" stroke="#D9D9D9" stroke-width="3.4375" stroke-linejoin="round" stroke-miterlimit="10" fill="none"/></g><g clip-path="url(#clip2)"><path d="M1443.05 413.014 1476.05 413.014 1476.05 840 1443.05 840ZM1548.05 487.016 1581.05 487.016 1581.05 840 1548.05 840ZM1653.05 655.021 1686.06 655.021 1686.06 840 1653.05 840ZM1758.06 676.022 1791.06 676.022 1791.06 840 1758.06 840ZM1863.06 686.023 1896.06 686.023 1896.06 840 1863.06 840ZM1968.06 716.023 2001.07 716.023 2001.07 840 1968.06 840ZM2073.07 721.024 2106.07 721.024 2106.07 840 2073.07 840ZM2178.07 739.024 2211.07 739.024 2211.07 840 2178.07 840ZM2283.07 776.025 2316.08 776.025 2316.08 840 2283.07 840ZM2388.08 778.026 2420.08 778.026 2420.08 840 2388.08 840ZM2492.08 787.026 2525.08 787.026 2525.08 840 2492.08 840ZM2597.09 795.026 2630.09 795.026 2630.09 840 2597.09 840ZM2702.09 796.026 2735.09 796.026 2735.09 840 2702.09 840ZM2807.09 801.026 2840.09 801.026 2840.09 840 2807.09 840Z" fill="#4472C4"/></g><g clip-path="url(#clip3)"><path d="M1407.5 839.5 2876.5 839.5" stroke="#D9D9D9" stroke-width="3.4375" stroke-linejoin="round" stroke-miterlimit="10" fill="none" fill-rule="evenodd"/></g><g clip-path="url(#clip4)"><text fill="#595959" font-family="Calibri,Calibri_MSFontService,sans-serif" font-weight="400" font-size="41" transform="matrix(1 0 0 1 1348.23 851)">0</text></g><g clip-path="url(#clip5)"><text fill="#595959" font-family="Calibri,Calibri_MSFontService,sans-serif" font-weight="400" font-size="41" transform="matrix(1 0 0 1 1327.33 806)">50</text></g><g clip-path="url(#clip6)"><text fill="#595959" font-family="Calibri,Calibri_MSFontService,sans-serif" font-weight="400" font-size="41" transform="matrix(1 0 0 1 1306.43 760)">100</text></g><g clip-path="url(#clip7)"><text fill="#595959" font-family="Calibri,Calibri_MSFontService,sans-serif" font-weight="400" font-size="41" transform="matrix(1 0 0 1 1306.43 714)">150</text></g><g clip-path="url(#clip8)"><text fill="#595959" font-family="Calibri,Calibri_MSFontService,sans-serif" font-weight="400" font-size="41" transform="matrix(1 0 0 1 1306.43 668)">200</text></g><g clip-path="url(#clip9)"><text fill="#595959" font-family="Calibri,Calibri_MSFontService,sans-serif" font-weight="400" font-size="41" transform="matrix(1 0 0 1 1306.43 623)">250</text></g><g clip-path="url(#clip10)"><text fill="#595959" font-family="Calibri,Calibri_MSFontService,sans-serif" font-weight="400" font-size="41" transform="matrix(1 0 0 1 1306.43 577)">300</text></g><g clip-path="url(#clip11)"><text fill="#595959" font-family="Calibri,Calibri_MSFontService,sans-serif" font-weight="400" font-size="41" transform="matrix(1 0 0 1 1306.43 531)">350</text></g><g clip-path="url(#clip12)"><text fill="#595959" font-family="Calibri,Calibri_MSFontService,sans-serif" font-weight="400" font-size="41" transform="matrix(1 0 0 1 1306.43 486)">400</text></g><g clip-path="url(#clip13)"><text fill="#595959" font-family="Calibri,Calibri_MSFontService,sans-serif" font-weight="400" font-size="41" transform="matrix(1 0 0 1 1306.43 440)">450</text></g><g clip-path="url(#clip14)"><text fill="#595959" font-family="Calibri,Calibri_MSFontService,sans-serif" font-weight="400" font-size="41" transform="matrix(1 0 0 1 1306.43 394)">500</text></g><g clip-path="url(#clip15)"><text fill="#595959" font-family="Calibri,Calibri_MSFontService,sans-serif" font-weight="400" font-size="41" transform="matrix(0.707107 -0.707107 0.707107 0.707107 1362.08 1001)">Jeevesh8</text></g><g clip-path="url(#clip16)"><text fill="#595959" font-family="Calibri,Calibri_MSFontService,sans-serif" font-weight="400" font-size="41" transform="matrix(0.707107 -0.707107 0.707107 0.707107 1426.69 1041)">Helsinki-NLP</text></g><g clip-path="url(#clip17)"><text fill="#595959" font-family="Calibri,Calibri_MSFontService,sans-serif" font-weight="400" font-size="41" transform="matrix(0.707107 -0.707107 0.707107 0.707107 1570.4 1003)">facebook</text></g><g clip-path="url(#clip18)"><text fill="#595959" font-family="Calibri,Calibri_MSFontService,sans-serif" font-weight="400" font-size="41" transform="matrix(0.707107 -0.707107 0.707107 0.707107 1704.96 973)">google</text></g><g clip-path="url(#clip19)"><text fill="#595959" font-family="Calibri,Calibri_MSFontService,sans-serif" font-weight="400" font-size="41" transform="matrix(0.707107 -0.707107 0.707107 0.707107 1714.59 1068)">huggingtweets</text></g><g clip-path="url(#clip20)"><text fill="#595959" font-family="Calibri,Calibri_MSFontService,sans-serif" font-weight="400" font-size="41" transform="matrix(0.707107 -0.707107 0.707107 0.707107 1880.87 1007)">microsoft</text></g><g clip-path="url(#clip21)"><text fill="#595959" font-family="Calibri,Calibri_MSFontService,sans-serif" font-weight="400" font-size="41" transform="matrix(0.707107 -0.707107 0.707107 0.707107 1983.23 1010)">mrm8488</text></g><g clip-path="url(#clip22)"><text fill="#595959" font-family="Calibri,Calibri_MSFontService,sans-serif" font-weight="400" font-size="41" transform="matrix(0.707107 -0.707107 0.707107 0.707107 1932.87 1165)">sentence-transformers</text></g><g clip-path="url(#clip23)"><text fill="#595959" font-family="Calibri,Calibri_MSFontService,sans-serif" font-weight="400" font-size="41" transform="matrix(0.707107 -0.707107 0.707107 0.707107 2231.09 971)">allenai</text></g><g clip-path="url(#clip24)"><text fill="#595959" font-family="Calibri,Calibri_MSFontService,sans-serif" font-weight="400" font-size="41" transform="matrix(0.707107 -0.707107 0.707107 0.707107 2198.09 1109)">hf-internal-testing</text></g><g clip-path="url(#clip25)"><text fill="#595959" font-family="Calibri,Calibri_MSFontService,sans-serif" font-weight="400" font-size="41" transform="matrix(0.707107 -0.707107 0.707107 0.707107 2399.02 1013)">textattack</text></g><g clip-path="url(#clip26)"><text fill="#595959" font-family="Calibri,Calibri_MSFontService,sans-serif" font-weight="400" font-size="41" transform="matrix(0.707107 -0.707107 0.707107 0.707107 2406.73 1111)">ghadeermobasher</text></g><g clip-path="url(#clip27)"><text fill="#595959" font-family="Calibri,Calibri_MSFontService,sans-serif" font-weight="400" font-size="41" transform="matrix(0.707107 -0.707107 0.707107 0.707107 2688.59 934)">uer</text></g><g clip-path="url(#clip28)"><text fill="#595959" font-family="Calibri,Calibri_MSFontService,sans-serif" font-weight="400" font-size="41" transform="matrix(0.707107 -0.707107 0.707107 0.707107 2752.72 974)">dbmdz</text></g><g clip-path="url(#clip29)"><text fill="#595959" font-family="Calibri,Calibri_MSFontService,sans-serif" font-weight="400" font-size="64" transform="matrix(1 0 0 1 1857.94 308)">Number of models</text></g><rect x="1277.5" y="213.5" width="1650" height="990" stroke="#D9D9D9" stroke-width="3.4375" stroke-linejoin="round" stroke-miterlimit="10" fill="none"/></g></svg>