<svg width="1652" height="993" xmlns="http://www.w3.org/2000/svg" xmlns:xlink="http://www.w3.org/1999/xlink" xml:space="preserve" overflow="hidden"><defs><clipPath id="clip0"><rect x="1732" y="425" width="1652" height="993"/></clipPath><clipPath id="clip1"><rect x="1732" y="426" width="1650" height="990"/></clipPath><clipPath id="clip2"><rect x="1884" y="596" width="1451" height="717"/></clipPath><clipPath id="clip3"><rect x="1732" y="426" width="1650" height="990"/></clipPath><clipPath id="clip4"><rect x="1732" y="426" width="1650" height="990"/></clipPath><clipPath id="clip5"><rect x="1732" y="426" width="1650" height="990"/></clipPath><clipPath id="clip6"><rect x="1732" y="426" width="1650" height="990"/></clipPath><clipPath id="clip7"><rect x="1732" y="426" width="1650" height="990"/></clipPath><clipPath id="clip8"><rect x="1732" y="426" width="1650" height="990"/></clipPath><clipPath id="clip9"><rect x="1732" y="426" width="1650" height="990"/></clipPath><clipPath id="clip10"><rect x="1732" y="426" width="1650" height="990"/></clipPath><clipPath id="clip11"><rect x="1732" y="426" width="1650" height="990"/></clipPath><clipPath id="clip12"><rect x="1732" y="426" width="1650" height="990"/></clipPath><clipPath id="clip13"><rect x="1732" y="426" width="1650" height="990"/></clipPath><clipPath id="clip14"><rect x="1732" y="426" width="1650" height="990"/></clipPath><clipPath id="clip15"><rect x="1732" y="426" width="1650" height="990"/></clipPath><clipPath id="clip16"><rect x="1732" y="426" width="1650" height="990"/></clipPath><clipPath id="clip17"><rect x="1732" y="426" width="1650" height="990"/></clipPath><clipPath id="clip18"><rect x="1732" y="426" width="1650" height="990"/></clipPath><clipPath id="clip19"><rect x="1732" y="426" width="1650" height="990"/></clipPath><clipPath id="clip20"><rect x="1732" y="426" width="1650" height="990"/></clipPath><clipPath id="clip21"><rect x="1732" y="426" width="1650" height="990"/></clipPath><clipPath id="clip22"><rect x="1732" y="426" width="1650" height="990"/></clipPath><clipPath id="clip23"><rect x="1732" y="426" width="1650" height="990"/></clipPath><clipPath id="clip24"><rect x="1732" y="426" width="1650" height="990"/></clipPath><clipPath id="clip25"><rect x="1732" y="426" width="1650" height="990"/></clipPath><clipPath id="clip26"><rect x="1732" y="426" width="1650" height="990"/></clipPath><clipPath id="clip27"><rect x="1732" y="426" width="1650" height="990"/></clipPath></defs><g clip-path="url(#clip0)" transform="translate(-1732 -425)"><rect x="1733" y="426" width="1649" height="990" fill="#FFFFFF"/><g clip-path="url(#clip1)"><path d="M1884.5 1207.54 3332.5 1207.54M1884.5 1105.54 3332.5 1105.54M1884.5 1004.53 3332.5 1004.53M1884.5 902.53 3332.5 902.53M1884.5 800.526 3332.5 800.526M1884.5 698.523 3332.5 698.523M1884.5 596.5 3332.5 596.5" stroke="#D9D9D9" stroke-width="3.4375" stroke-linejoin="round" stroke-miterlimit="10" fill="none"/></g><g clip-path="url(#clip2)"><path d="M1917.06 1309.04 1947.06 1309.04 1947.06 1310 1917.06 1310ZM2014.07 854.028 2044.07 854.028 2044.07 1310 2014.07 1310ZM2110.07 955.031 2141.07 955.031 2141.07 1310 2110.07 1310ZM2207.07 639.021 2237.07 639.021 2237.07 1310 2207.07 1310ZM2303.08 1015.03 2334.08 1015.03 2334.08 1310 2303.08 1310ZM2400.08 1075.04 2430.08 1075.04 2430.08 1310 2400.08 1310ZM2496.08 1181.04 2527.08 1181.04 2527.08 1310 2496.08 1310ZM2593.08 1169.04 2623.09 1169.04 2623.09 1310 2593.08 1310ZM2689.09 1250.04 2720.09 1250.04 2720.09 1310 2689.09 1310ZM2786.09 1231.04 2816.09 1231.04 2816.09 1310 2786.09 1310ZM2882.09 1280.04 2913.1 1280.04 2913.1 1310 2882.09 1310ZM2979.1 1268.04 3009.1 1268.04 3009.1 1310 2979.1 1310ZM3076.1 1283.04 3106.1 1283.04 3106.1 1310 3076.1 1310ZM3172.1 1277.04 3202.1 1277.04 3202.1 1310 3172.1 1310ZM3269.11 1297.04 3299.11 1297.04 3299.11 1310 3269.11 1310Z" fill="#4472C4"/></g><g clip-path="url(#clip3)"><path d="M1884.5 1309.5 3332.5 1309.5" stroke="#D9D9D9" stroke-width="3.4375" stroke-linejoin="round" stroke-miterlimit="10" fill="none" fill-rule="evenodd"/></g><g clip-path="url(#clip4)"><text fill="#595959" font-family="Calibri,Calibri_MSFontService,sans-serif" font-weight="400" font-size="41" transform="matrix(1 0 0 1 1824.99 1321)">0</text></g><g clip-path="url(#clip5)"><text fill="#595959" font-family="Calibri,Calibri_MSFontService,sans-serif" font-weight="400" font-size="41" transform="matrix(1 0 0 1 1783.19 1220)">200</text></g><g clip-path="url(#clip6)"><text fill="#595959" font-family="Calibri,Calibri_MSFontService,sans-serif" font-weight="400" font-size="41" transform="matrix(1 0 0 1 1783.19 1118)">400</text></g><g clip-path="url(#clip7)"><text fill="#595959" font-family="Calibri,Calibri_MSFontService,sans-serif" font-weight="400" font-size="41" transform="matrix(1 0 0 1 1783.19 1016)">600</text></g><g clip-path="url(#clip8)"><text fill="#595959" font-family="Calibri,Calibri_MSFontService,sans-serif" font-weight="400" font-size="41" transform="matrix(1 0 0 1 1783.19 914)">800</text></g><g clip-path="url(#clip9)"><text fill="#595959" font-family="Calibri,Calibri_MSFontService,sans-serif" font-weight="400" font-size="41" transform="matrix(1 0 0 1 1762.29 812)">1000</text></g><g clip-path="url(#clip10)"><text fill="#595959" font-family="Calibri,Calibri_MSFontService,sans-serif" font-weight="400" font-size="41" transform="matrix(1 0 0 1 1762.29 710)">1200</text></g><g clip-path="url(#clip11)"><text fill="#595959" font-family="Calibri,Calibri_MSFontService,sans-serif" font-weight="400" font-size="41" transform="matrix(1 0 0 1 1762.29 608)">1400</text></g><g clip-path="url(#clip12)"><text fill="#595959" font-family="Calibri,Calibri_MSFontService,sans-serif" font-weight="400" font-size="41" transform="matrix(1 0 0 1 1921.97 1375)">1</text></g><g clip-path="url(#clip13)"><text fill="#595959" font-family="Calibri,Calibri_MSFontService,sans-serif" font-weight="400" font-size="41" transform="matrix(1 0 0 1 2018.5 1375)">2</text></g><g clip-path="url(#clip14)"><text fill="#595959" font-family="Calibri,Calibri_MSFontService,sans-serif" font-weight="400" font-size="41" transform="matrix(1 0 0 1 2115.03 1375)">3</text></g><g clip-path="url(#clip15)"><text fill="#595959" font-family="Calibri,Calibri_MSFontService,sans-serif" font-weight="400" font-size="41" transform="matrix(1 0 0 1 2211.56 1375)">4</text></g><g clip-path="url(#clip16)"><text fill="#595959" font-family="Calibri,Calibri_MSFontService,sans-serif" font-weight="400" font-size="41" transform="matrix(1 0 0 1 2308.09 1375)">5</text></g><g clip-path="url(#clip17)"><text fill="#595959" font-family="Calibri,Calibri_MSFontService,sans-serif" font-weight="400" font-size="41" transform="matrix(1 0 0 1 2404.61 1375)">6</text></g><g clip-path="url(#clip18)"><text fill="#595959" font-family="Calibri,Calibri_MSFontService,sans-serif" font-weight="400" font-size="41" transform="matrix(1 0 0 1 2501.14 1375)">7</text></g><g clip-path="url(#clip19)"><text fill="#595959" font-family="Calibri,Calibri_MSFontService,sans-serif" font-weight="400" font-size="41" transform="matrix(1 0 0 1 2597.67 1375)">8</text></g><g clip-path="url(#clip20)"><text fill="#595959" font-family="Calibri,Calibri_MSFontService,sans-serif" font-weight="400" font-size="41" transform="matrix(1 0 0 1 2694.2 1375)">9</text></g><g clip-path="url(#clip21)"><text fill="#595959" font-family="Calibri,Calibri_MSFontService,sans-serif" font-weight="400" font-size="41" transform="matrix(1 0 0 1 2780.28 1375)">10</text></g><g clip-path="url(#clip22)"><text fill="#595959" font-family="Calibri,Calibri_MSFontService,sans-serif" font-weight="400" font-size="41" transform="matrix(1 0 0 1 2876.81 1375)">11</text></g><g clip-path="url(#clip23)"><text fill="#595959" font-family="Calibri,Calibri_MSFontService,sans-serif" font-weight="400" font-size="41" transform="matrix(1 0 0 1 2973.33 1375)">12</text></g><g clip-path="url(#clip24)"><text fill="#595959" font-family="Calibri,Calibri_MSFontService,sans-serif" font-weight="400" font-size="41" transform="matrix(1 0 0 1 3069.86 1375)">13</text></g><g clip-path="url(#clip25)"><text fill="#595959" font-family="Calibri,Calibri_MSFontService,sans-serif" font-weight="400" font-size="41" transform="matrix(1 0 0 1 3166.39 1375)">14</text></g><g clip-path="url(#clip26)"><text fill="#595959" font-family="Calibri,Calibri_MSFontService,sans-serif" font-weight="400" font-size="41" transform="matrix(1 0 0 1 3262.92 1375)">15</text></g><g clip-path="url(#clip27)"><text fill="#595959" font-family="Calibri,Calibri_MSFontService,sans-serif" font-weight="400" font-size="64" transform="matrix(1 0 0 1 2240.91 522)">number of files per repo</text></g><rect x="1733.5" y="426.5" width="1649" height="990" stroke="#D9D9D9" stroke-width="3.4375" stroke-linejoin="round" stroke-miterlimit="10" fill="none"/></g></svg>