<svg width="1652" height="993" xmlns="http://www.w3.org/2000/svg" xmlns:xlink="http://www.w3.org/1999/xlink" xml:space="preserve" overflow="hidden"><defs><clipPath id="clip0"><rect x="1732" y="425" width="1652" height="993"/></clipPath><clipPath id="clip1"><rect x="1732" y="426" width="1650" height="990"/></clipPath><clipPath id="clip2"><rect x="1732" y="426" width="1650" height="990"/></clipPath><clipPath id="clip3"><rect x="1732" y="426" width="1650" height="990"/></clipPath><clipPath id="clip4"><rect x="1732" y="426" width="1650" height="990"/></clipPath><clipPath id="clip5"><rect x="1732" y="426" width="1650" height="990"/></clipPath><clipPath id="clip6"><rect x="1732" y="426" width="1650" height="990"/></clipPath><clipPath id="clip7"><rect x="1732" y="426" width="1650" height="990"/></clipPath><clipPath id="clip8"><rect x="1732" y="426" width="1650" height="990"/></clipPath><clipPath id="clip9"><rect x="1732" y="426" width="1650" height="990"/></clipPath><clipPath id="clip10"><rect x="1732" y="426" width="1650" height="990"/></clipPath><clipPath id="clip11"><rect x="1732" y="426" width="1650" height="990"/></clipPath><clipPath id="clip12"><rect x="1732" y="426" width="1650" height="990"/></clipPath><clipPath id="clip13"><rect x="1732" y="426" width="1650" height="990"/></clipPath><clipPath id="clip14"><rect x="1732" y="426" width="1650" height="990"/></clipPath><clipPath id="clip15"><rect x="1732" y="426" width="1650" height="990"/></clipPath><clipPath id="clip16"><rect x="1732" y="426" width="1650" height="990"/></clipPath><clipPath id="clip17"><rect x="1732" y="426" width="1650" height="990"/></clipPath><clipPath id="clip18"><rect x="1732" y="426" width="1650" height="990"/></clipPath><clipPath id="clip19"><rect x="1732" y="426" width="1650" height="990"/></clipPath><clipPath id="clip20"><rect x="1732" y="426" width="1650" height="990"/></clipPath><clipPath id="clip21"><rect x="1732" y="426" width="1650" height="990"/></clipPath><clipPath id="clip22"><rect x="1732" y="426" width="1650" height="990"/></clipPath><clipPath id="clip23"><rect x="1732" y="426" width="1650" height="990"/></clipPath><clipPath id="clip24"><rect x="1732" y="426" width="1650" height="990"/></clipPath><clipPath id="clip25"><rect x="1732" y="426" width="1650" height="990"/></clipPath><clipPath id="clip26"><rect x="1732" y="426" width="1650" height="990"/></clipPath><clipPath id="clip27"><rect x="1732" y="426" width="1650" height="990"/></clipPath><clipPath id="clip28"><rect x="1732" y="426" width="1650" height="990"/></clipPath><clipPath id="clip29"><rect x="1732" y="426" width="1650" height="990"/></clipPath><clipPath id="clip30"><rect x="1732" y="426" width="1650" height="990"/></clipPath><clipPath id="clip31"><rect x="1732" y="426" width="1650" height="990"/></clipPath><clipPath id="clip32"><rect x="1732" y="426" width="1650" height="990"/></clipPath><clipPath id="clip33"><rect x="1732" y="426" width="1650" height="990"/></clipPath><clipPath id="clip34"><rect x="1732" y="426" width="1650" height="990"/></clipPath><clipPath id="clip35"><rect x="1732" y="426" width="1650" height="990"/></clipPath><clipPath id="clip36"><rect x="1732" y="426" width="1650" height="990"/></clipPath><clipPath id="clip37"><rect x="1732" y="426" width="1650" height="990"/></clipPath><clipPath id="clip38"><rect x="1732" y="426" width="1650" height="990"/></clipPath><clipPath id="clip39"><rect x="1732" y="426" width="1650" height="990"/></clipPath><clipPath id="clip40"><rect x="1732" y="426" width="1650" height="990"/></clipPath><clipPath id="clip41"><rect x="1732" y="426" width="1650" height="990"/></clipPath><clipPath id="clip42"><rect x="1732" y="426" width="1650" height="990"/></clipPath><clipPath id="clip43"><rect x="1732" y="426" width="1650" height="990"/></clipPath><clipPath id="clip44"><rect x="1732" y="426" width="1650" height="990"/></clipPath><clipPath id="clip45"><rect x="1732" y="426" width="1650" height="990"/></clipPath><clipPath id="clip46"><rect x="1732" y="426" width="1650" height="990"/></clipPath><clipPath id="clip47"><rect x="1732" y="426" width="1650" height="990"/></clipPath><clipPath id="clip48"><rect x="1732" y="426" width="1650" height="990"/></clipPath><clipPath id="clip49"><rect x="1732" y="426" width="1650" height="990"/></clipPath><clipPath id="clip50"><rect x="1732" y="426" width="1650" height="990"/></clipPath><clipPath id="clip51"><rect x="1732" y="426" width="1650" height="990"/></clipPath><clipPath id="clip52"><rect x="1732" y="426" width="1650" height="990"/></clipPath><clipPath id="clip53"><rect x="1732" y="426" width="1650" height="990"/></clipPath><clipPath id="clip54"><rect x="1732" y="426" width="1650" height="990"/></clipPath><clipPath id="clip55"><rect x="1732" y="426" width="1650" height="990"/></clipPath><clipPath id="clip56"><rect x="1732" y="426" width="1650" height="990"/></clipPath><clipPath id="clip57"><rect x="1732" y="426" width="1650" height="990"/></clipPath><clipPath id="clip58"><rect x="1732" y="426" width="1650" height="990"/></clipPath><clipPath id="clip59"><rect x="1732" y="426" width="1650" height="990"/></clipPath><clipPath id="clip60"><rect x="1732" y="426" width="1650" height="990"/></clipPath><clipPath id="clip61"><rect x="1732" y="426" width="1650" height="990"/></clipPath><clipPath id="clip62"><rect x="1732" y="426" width="1650" height="990"/></clipPath><clipPath id="clip63"><rect x="1732" y="426" width="1650" height="990"/></clipPath><clipPath id="clip64"><rect x="1732" y="426" width="1650" height="990"/></clipPath></defs><g clip-path="url(#clip0)" transform="translate(-1732 -425)"><rect x="1733" y="426" width="1649" height="990" fill="#FFFFFF"/><g clip-path="url(#clip1)"><path d="M2557.5 531.989C2569.44 531.989 2581.38 532.624 2593.25 533.891L2557.5 868.828Z" stroke="#FFFFFF" stroke-width="6.875" stroke-linejoin="round" stroke-miterlimit="10" fill="#4472C4" fill-rule="evenodd"/></g><g clip-path="url(#clip2)"><path d="M2593.25 533.892C2649.52 539.897 2703.36 559.981 2749.82 592.287L2557.5 868.828Z" stroke="#FFFFFF" stroke-width="6.875" stroke-linejoin="round" stroke-miterlimit="10" fill="#ED7D31" fill-rule="evenodd"/></g><g clip-path="url(#clip3)"><path d="M2749.82 592.287C2795.02 623.721 2831.82 665.753 2857.01 714.707L2557.5 868.828Z" stroke="#FFFFFF" stroke-width="6.875" stroke-linejoin="round" stroke-miterlimit="10" fill="#A5A5A5" fill-rule="evenodd"/></g><g clip-path="url(#clip4)"><path d="M2857.01 714.706C2892.2 783.082 2902.93 861.439 2887.42 936.757L2557.5 868.828Z" stroke="#FFFFFF" stroke-width="6.875" stroke-linejoin="round" stroke-miterlimit="10" fill="#FFC000" fill-rule="evenodd"/></g><g clip-path="url(#clip5)"><path d="M2887.42 936.757C2876.85 988.082 2854.45 1036.23 2822.01 1077.38L2557.5 868.828Z" stroke="#FFFFFF" stroke-width="6.875" stroke-linejoin="round" stroke-miterlimit="10" fill="#5B9BD5" fill-rule="evenodd"/></g><g clip-path="url(#clip6)"><path d="M2822.01 1077.38C2794.53 1112.23 2760.44 1141.31 2721.69 1162.94L2557.5 868.828Z" stroke="#FFFFFF" stroke-width="6.875" stroke-linejoin="round" stroke-miterlimit="10" fill="#70AD47" fill-rule="evenodd"/></g><g clip-path="url(#clip7)"><path d="M2721.69 1162.94C2690.17 1180.53 2656.03 1192.95 2620.58 1199.71L2557.5 868.828Z" stroke="#FFFFFF" stroke-width="6.875" stroke-linejoin="round" stroke-miterlimit="10" fill="#264478" fill-rule="evenodd"/></g><g clip-path="url(#clip8)"><path d="M2620.58 1199.71C2549.89 1213.18 2476.74 1203.67 2411.86 1172.55L2557.5 868.828Z" stroke="#FFFFFF" stroke-width="6.875" stroke-linejoin="round" stroke-miterlimit="10" fill="#9E480E" fill-rule="evenodd"/></g><g clip-path="url(#clip9)"><path d="M2411.86 1172.55C2374.01 1154.41 2339.9 1129.35 2311.26 1098.67L2557.5 868.828Z" stroke="#FFFFFF" stroke-width="6.875" stroke-linejoin="round" stroke-miterlimit="10" fill="#636363" fill-rule="evenodd"/></g><g clip-path="url(#clip10)"><path d="M2311.26 1098.67C2290.34 1076.25 2272.57 1051.08 2258.46 1023.86L2557.5 868.828Z" stroke="#FFFFFF" stroke-width="6.875" stroke-linejoin="round" stroke-miterlimit="10" fill="#997300" fill-rule="evenodd"/></g><g clip-path="url(#clip11)"><path d="M2258.46 1023.86C2248.81 1005.24 2240.92 985.77 2234.89 965.689L2557.5 868.828Z" stroke="#FFFFFF" stroke-width="6.875" stroke-linejoin="round" stroke-miterlimit="10" fill="#255E91" fill-rule="evenodd"/></g><g clip-path="url(#clip12)"><path d="M2234.89 965.688C2225.86 935.635 2221.09 904.468 2220.69 873.092L2557.5 868.828Z" stroke="#FFFFFF" stroke-width="6.875" stroke-linejoin="round" stroke-miterlimit="10" fill="#43682B" fill-rule="evenodd"/></g><g clip-path="url(#clip13)"><path d="M2220.69 873.092C2220.55 862.374 2220.93 851.655 2221.81 840.972L2557.5 868.828Z" stroke="#FFFFFF" stroke-width="6.875" stroke-linejoin="round" stroke-miterlimit="10" fill="#698ED0" fill-rule="evenodd"/></g><g clip-path="url(#clip14)"><path d="M2221.81 840.972C2223.21 824.163 2225.86 807.484 2229.76 791.074L2557.5 868.828Z" stroke="#FFFFFF" stroke-width="6.875" stroke-linejoin="round" stroke-miterlimit="10" fill="#F1975A" fill-rule="evenodd"/></g><g clip-path="url(#clip15)"><path d="M2229.76 791.073C2232.05 781.418 2234.76 771.869 2237.9 762.454L2557.5 868.828Z" stroke="#FFFFFF" stroke-width="6.875" stroke-linejoin="round" stroke-miterlimit="10" fill="#B7B7B7" fill-rule="evenodd"/></g><g clip-path="url(#clip16)"><path d="M2237.9 762.454C2283.7 624.834 2412.46 531.988 2557.5 531.988L2557.5 868.828Z" stroke="#FFFFFF" stroke-width="6.875" stroke-linejoin="round" stroke-miterlimit="10" fill="#FFCD33" fill-rule="evenodd"/></g><g clip-path="url(#clip17)"><text fill="#404040" font-family="Calibri,Calibri_MSFontService,sans-serif" font-weight="400" font-size="41" transform="matrix(1 0 0 1 2557.46 501)">2%</text></g><g clip-path="url(#clip18)"><text fill="#404040" font-family="Calibri,Calibri_MSFontService,sans-serif" font-weight="400" font-size="41" transform="matrix(1 0 0 1 2695.72 522)">8%</text></g><g clip-path="url(#clip19)"><text fill="#404040" font-family="Calibri,Calibri_MSFontService,sans-serif" font-weight="400" font-size="41" transform="matrix(1 0 0 1 2838.32 624)">8%</text></g><g clip-path="url(#clip20)"><text fill="#404040" font-family="Calibri,Calibri_MSFontService,sans-serif" font-weight="400" font-size="41" transform="matrix(1 0 0 1 2922.92 831)">11%</text></g><g clip-path="url(#clip21)"><text fill="#404040" font-family="Calibri,Calibri_MSFontService,sans-serif" font-weight="400" font-size="41" transform="matrix(1 0 0 1 2892.96 1045)">7%</text></g><g clip-path="url(#clip22)"><text fill="#404040" font-family="Calibri,Calibri_MSFontService,sans-serif" font-weight="400" font-size="41" transform="matrix(1 0 0 1 2801.71 1181)">6%</text></g><g clip-path="url(#clip23)"><text fill="#404040" font-family="Calibri,Calibri_MSFontService,sans-serif" font-weight="400" font-size="41" transform="matrix(1 0 0 1 2692.99 1244)">5%</text></g><g clip-path="url(#clip24)"><text fill="#404040" font-family="Calibri,Calibri_MSFontService,sans-serif" font-weight="400" font-size="41" transform="matrix(1 0 0 1 2456.52 1262)">10%</text></g><g clip-path="url(#clip25)"><text fill="#404040" font-family="Calibri,Calibri_MSFontService,sans-serif" font-weight="400" font-size="41" transform="matrix(1 0 0 1 2283.06 1197)">6%</text></g><g clip-path="url(#clip26)"><text fill="#404040" font-family="Calibri,Calibri_MSFontService,sans-serif" font-weight="400" font-size="41" transform="matrix(1 0 0 1 2203.4 1107)">4%</text></g><g clip-path="url(#clip27)"><text fill="#404040" font-family="Calibri,Calibri_MSFontService,sans-serif" font-weight="400" font-size="41" transform="matrix(1 0 0 1 2164.53 1027)">3%</text></g><g clip-path="url(#clip28)"><text fill="#404040" font-family="Calibri,Calibri_MSFontService,sans-serif" font-weight="400" font-size="41" transform="matrix(1 0 0 1 2142.72 941)">4%</text></g><g clip-path="url(#clip29)"><text fill="#404040" font-family="Calibri,Calibri_MSFontService,sans-serif" font-weight="400" font-size="41" transform="matrix(1 0 0 1 2138.85 869)">2%</text></g><g clip-path="url(#clip30)"><text fill="#404040" font-family="Calibri,Calibri_MSFontService,sans-serif" font-weight="400" font-size="41" transform="matrix(1 0 0 1 2143.03 822)">2%</text></g><g clip-path="url(#clip31)"><text fill="#404040" font-family="Calibri,Calibri_MSFontService,sans-serif" font-weight="400" font-size="41" transform="matrix(1 0 0 1 2152.13 778)">1%</text></g><g clip-path="url(#clip32)"><text fill="#404040" font-family="Calibri,Calibri_MSFontService,sans-serif" font-weight="400" font-size="41" transform="matrix(1 0 0 1 2264.45 566)">20%</text></g><g clip-path="url(#clip33)"><rect x="1843.5" y="1338.5" width="22" height="23" stroke="#FFFFFF" stroke-width="6.875" stroke-linejoin="round" stroke-miterlimit="10" fill="#4472C4"/></g><g clip-path="url(#clip34)"><text fill="#595959" font-family="Calibri,Calibri_MSFontService,sans-serif" font-weight="400" font-size="41" transform="matrix(1 0 0 1 1875.51 1362)">1</text></g><g clip-path="url(#clip35)"><rect x="1922.5" y="1338.5" width="23" height="23" stroke="#FFFFFF" stroke-width="6.875" stroke-linejoin="round" stroke-miterlimit="10" fill="#ED7D31"/></g><g clip-path="url(#clip36)"><text fill="#595959" font-family="Calibri,Calibri_MSFontService,sans-serif" font-weight="400" font-size="41" transform="matrix(1 0 0 1 1955.2 1362)">2</text></g><g clip-path="url(#clip37)"><rect x="2002.5" y="1338.5" width="23" height="23" stroke="#FFFFFF" stroke-width="6.875" stroke-linejoin="round" stroke-miterlimit="10" fill="#A5A5A5"/></g><g clip-path="url(#clip38)"><text fill="#595959" font-family="Calibri,Calibri_MSFontService,sans-serif" font-weight="400" font-size="41" transform="matrix(1 0 0 1 2034.89 1362)">3</text></g><g clip-path="url(#clip39)"><rect x="2082.5" y="1338.5" width="22" height="23" stroke="#FFFFFF" stroke-width="6.875" stroke-linejoin="round" stroke-miterlimit="10" fill="#FFC000"/></g><g clip-path="url(#clip40)"><text fill="#595959" font-family="Calibri,Calibri_MSFontService,sans-serif" font-weight="400" font-size="41" transform="matrix(1 0 0 1 2114.59 1362)">4</text></g><g clip-path="url(#clip41)"><rect x="2162.5" y="1338.5" width="22" height="23" stroke="#FFFFFF" stroke-width="6.875" stroke-linejoin="round" stroke-miterlimit="10" fill="#5B9BD5"/></g><g clip-path="url(#clip42)"><text fill="#595959" font-family="Calibri,Calibri_MSFontService,sans-serif" font-weight="400" font-size="41" transform="matrix(1 0 0 1 2194.28 1362)">5</text></g><g clip-path="url(#clip43)"><rect x="2241.5" y="1338.5" width="23" height="23" stroke="#FFFFFF" stroke-width="6.875" stroke-linejoin="round" stroke-miterlimit="10" fill="#70AD47"/></g><g clip-path="url(#clip44)"><text fill="#595959" font-family="Calibri,Calibri_MSFontService,sans-serif" font-weight="400" font-size="41" transform="matrix(1 0 0 1 2273.97 1362)">6</text></g><g clip-path="url(#clip45)"><rect x="2321.5" y="1338.5" width="23" height="23" stroke="#FFFFFF" stroke-width="6.875" stroke-linejoin="round" stroke-miterlimit="10" fill="#264478"/></g><g clip-path="url(#clip46)"><text fill="#595959" font-family="Calibri,Calibri_MSFontService,sans-serif" font-weight="400" font-size="41" transform="matrix(1 0 0 1 2353.66 1362)">7</text></g><g clip-path="url(#clip47)"><rect x="2401.5" y="1338.5" width="22" height="23" stroke="#FFFFFF" stroke-width="6.875" stroke-linejoin="round" stroke-miterlimit="10" fill="#9E480E"/></g><g clip-path="url(#clip48)"><text fill="#595959" font-family="Calibri,Calibri_MSFontService,sans-serif" font-weight="400" font-size="41" transform="matrix(1 0 0 1 2433.35 1362)">8</text></g><g clip-path="url(#clip49)"><rect x="2480.5" y="1338.5" width="23" height="23" stroke="#FFFFFF" stroke-width="6.875" stroke-linejoin="round" stroke-miterlimit="10" fill="#636363"/></g><g clip-path="url(#clip50)"><text fill="#595959" font-family="Calibri,Calibri_MSFontService,sans-serif" font-weight="400" font-size="41" transform="matrix(1 0 0 1 2513.05 1362)">9</text></g><g clip-path="url(#clip51)"><rect x="2560.5" y="1338.5" width="23" height="23" stroke="#FFFFFF" stroke-width="6.875" stroke-linejoin="round" stroke-miterlimit="10" fill="#997300"/></g><g clip-path="url(#clip52)"><text fill="#595959" font-family="Calibri,Calibri_MSFontService,sans-serif" font-weight="400" font-size="41" transform="matrix(1 0 0 1 2592.74 1362)">10</text></g><g clip-path="url(#clip53)"><rect x="2661.5" y="1338.5" width="22" height="23" stroke="#FFFFFF" stroke-width="6.875" stroke-linejoin="round" stroke-miterlimit="10" fill="#255E91"/></g><g clip-path="url(#clip54)"><text fill="#595959" font-family="Calibri,Calibri_MSFontService,sans-serif" font-weight="400" font-size="41" transform="matrix(1 0 0 1 2693.33 1362)">11</text></g><g clip-path="url(#clip55)"><rect x="2761.5" y="1338.5" width="23" height="23" stroke="#FFFFFF" stroke-width="6.875" stroke-linejoin="round" stroke-miterlimit="10" fill="#43682B"/></g><g clip-path="url(#clip56)"><text fill="#595959" font-family="Calibri,Calibri_MSFontService,sans-serif" font-weight="400" font-size="41" transform="matrix(1 0 0 1 2793.92 1362)">12</text></g><g clip-path="url(#clip57)"><rect x="2862.5" y="1338.5" width="22" height="23" stroke="#FFFFFF" stroke-width="6.875" stroke-linejoin="round" stroke-miterlimit="10" fill="#698ED0"/></g><g clip-path="url(#clip58)"><text fill="#595959" font-family="Calibri,Calibri_MSFontService,sans-serif" font-weight="400" font-size="41" transform="matrix(1 0 0 1 2894.51 1362)">13</text></g><g clip-path="url(#clip59)"><rect x="2962.5" y="1338.5" width="23" height="23" stroke="#FFFFFF" stroke-width="6.875" stroke-linejoin="round" stroke-miterlimit="10" fill="#F1975A"/></g><g clip-path="url(#clip60)"><text fill="#595959" font-family="Calibri,Calibri_MSFontService,sans-serif" font-weight="400" font-size="41" transform="matrix(1 0 0 1 2995.11 1362)">14</text></g><g clip-path="url(#clip61)"><rect x="3063.5" y="1338.5" width="23" height="23" stroke="#FFFFFF" stroke-width="6.875" stroke-linejoin="round" stroke-miterlimit="10" fill="#B7B7B7"/></g><g clip-path="url(#clip62)"><text fill="#595959" font-family="Calibri,Calibri_MSFontService,sans-serif" font-weight="400" font-size="41" transform="matrix(1 0 0 1 3095.7 1362)">15</text></g><g clip-path="url(#clip63)"><rect x="3164.5" y="1338.5" width="22" height="23" stroke="#FFFFFF" stroke-width="6.875" stroke-linejoin="round" stroke-miterlimit="10" fill="#FFCD33"/></g><g clip-path="url(#clip64)"><text fill="#595959" font-family="Calibri,Calibri_MSFontService,sans-serif" font-weight="400" font-size="41" transform="matrix(1 0 0 1 3196.29 1362)">More</text></g><rect x="1733.5" y="426.5" width="1649" height="990" stroke="#D9D9D9" stroke-width="3.4375" stroke-linejoin="round" stroke-miterlimit="10" fill="none"/></g></svg>