<svg width="1653" height="993" xmlns="http://www.w3.org/2000/svg" xmlns:xlink="http://www.w3.org/1999/xlink" xml:space="preserve" overflow="hidden"><defs><clipPath id="clip0"><rect x="615" y="348" width="1653" height="993"/></clipPath><clipPath id="clip1"><rect x="616" y="349" width="1650" height="990"/></clipPath><clipPath id="clip2"><rect x="746" y="519" width="1473" height="460"/></clipPath><clipPath id="clip3"><rect x="616" y="349" width="1650" height="990"/></clipPath><clipPath id="clip4"><rect x="616" y="349" width="1650" height="990"/></clipPath><clipPath id="clip5"><rect x="616" y="349" width="1650" height="990"/></clipPath><clipPath id="clip6"><rect x="616" y="349" width="1650" height="990"/></clipPath><clipPath id="clip7"><rect x="616" y="349" width="1650" height="990"/></clipPath><clipPath id="clip8"><rect x="616" y="349" width="1650" height="990"/></clipPath><clipPath id="clip9"><rect x="616" y="349" width="1650" height="990"/></clipPath><clipPath id="clip10"><rect x="616" y="349" width="1650" height="990"/></clipPath><clipPath id="clip11"><rect x="616" y="349" width="1650" height="990"/></clipPath><clipPath id="clip12"><rect x="616" y="349" width="1650" height="990"/></clipPath><clipPath id="clip13"><rect x="616" y="349" width="1650" height="990"/></clipPath><clipPath id="clip14"><rect x="616" y="349" width="1650" height="990"/></clipPath><clipPath id="clip15"><rect x="616" y="349" width="1650" height="990"/></clipPath><clipPath id="clip16"><rect x="616" y="349" width="1650" height="990"/></clipPath><clipPath id="clip17"><rect x="616" y="349" width="1650" height="990"/></clipPath><clipPath id="clip18"><rect x="616" y="349" width="1650" height="990"/></clipPath><clipPath id="clip19"><rect x="616" y="349" width="1650" height="990"/></clipPath><clipPath id="clip20"><rect x="616" y="349" width="1650" height="990"/></clipPath><clipPath id="clip21"><rect x="616" y="349" width="1650" height="990"/></clipPath></defs><g clip-path="url(#clip0)" transform="translate(-615 -348)"><rect x="616" y="349" width="1650" height="990" fill="#FFFFFF"/><g clip-path="url(#clip1)"><path d="M746.5 900.53 2215.5 900.53M746.5 824.527 2215.5 824.527M746.5 747.525 2215.5 747.525M746.5 671.522 2215.5 671.522M746.5 595.52 2215.5 595.52M746.5 519.5 2215.5 519.5" stroke="#D9D9D9" stroke-width="3.4375" stroke-linejoin="round" stroke-miterlimit="10" fill="none"/></g><g clip-path="url(#clip2)"><path d="M797.026 588.019 843.028 588.019 843.028 977 797.026 977ZM944.031 848.028 990.032 848.028 990.032 977 944.031 977ZM1091.04 856.028 1137.04 856.028 1137.04 977 1091.04 977ZM1238.04 867.028 1284.04 867.028 1284.04 977 1238.04 977ZM1385.05 874.029 1431.05 874.029 1431.05 977 1385.05 977ZM1532.05 874.029 1578.05 874.029 1578.05 977 1532.05 977ZM1678.05 893.029 1724.06 893.029 1724.06 977 1678.05 977ZM1825.06 894.029 1871.06 894.029 1871.06 977 1825.06 977ZM1972.06 934.031 2018.07 934.031 2018.07 977 1972.06 977ZM2119.07 934.031 2165.07 934.031 2165.07 977 2119.07 977Z" fill="#4472C4"/></g><g clip-path="url(#clip3)"><path d="M746.5 976.5 2215.5 976.5" stroke="#D9D9D9" stroke-width="3.4375" stroke-linejoin="round" stroke-miterlimit="10" fill="none" fill-rule="evenodd"/></g><g clip-path="url(#clip4)"><text fill="#595959" font-family="Calibri,Calibri_MSFontService,sans-serif" font-weight="400" font-size="41" transform="matrix(1 0 0 1 687.592 988)">0</text></g><g clip-path="url(#clip5)"><text fill="#595959" font-family="Calibri,Calibri_MSFontService,sans-serif" font-weight="400" font-size="41" transform="matrix(1 0 0 1 666.692 912)">50</text></g><g clip-path="url(#clip6)"><text fill="#595959" font-family="Calibri,Calibri_MSFontService,sans-serif" font-weight="400" font-size="41" transform="matrix(1 0 0 1 645.792 836)">100</text></g><g clip-path="url(#clip7)"><text fill="#595959" font-family="Calibri,Calibri_MSFontService,sans-serif" font-weight="400" font-size="41" transform="matrix(1 0 0 1 645.792 759)">150</text></g><g clip-path="url(#clip8)"><text fill="#595959" font-family="Calibri,Calibri_MSFontService,sans-serif" font-weight="400" font-size="41" transform="matrix(1 0 0 1 645.792 683)">200</text></g><g clip-path="url(#clip9)"><text fill="#595959" font-family="Calibri,Calibri_MSFontService,sans-serif" font-weight="400" font-size="41" transform="matrix(1 0 0 1 645.792 607)">250</text></g><g clip-path="url(#clip10)"><text fill="#595959" font-family="Calibri,Calibri_MSFontService,sans-serif" font-weight="400" font-size="41" transform="matrix(1 0 0 1 645.792 531)">300</text></g><g clip-path="url(#clip11)"><text fill="#595959" font-family="Calibri,Calibri_MSFontService,sans-serif" font-weight="400" font-size="41" transform="matrix(0.707107 -0.707107 0.707107 0.707107 722.427 1138)">Jeevesh8</text></g><g clip-path="url(#clip12)"><text fill="#595959" font-family="Calibri,Calibri_MSFontService,sans-serif" font-weight="400" font-size="41" transform="matrix(0.707107 -0.707107 0.707107 0.707107 867.802 1139)">facebook</text></g><g clip-path="url(#clip13)"><text fill="#595959" font-family="Calibri,Calibri_MSFontService,sans-serif" font-weight="400" font-size="41" transform="matrix(0.707107 -0.707107 0.707107 0.707107 852.574 1301)">sentence-transformers</text></g><g clip-path="url(#clip14)"><text fill="#595959" font-family="Calibri,Calibri_MSFontService,sans-serif" font-weight="400" font-size="41" transform="matrix(0.707107 -0.707107 0.707107 0.707107 1157.29 1144)">microsoft</text></g><g clip-path="url(#clip15)"><text fill="#595959" font-family="Calibri,Calibri_MSFontService,sans-serif" font-weight="400" font-size="41" transform="matrix(0.707107 -0.707107 0.707107 0.707107 1338.09 1110)">google</text></g><g clip-path="url(#clip16)"><text fill="#595959" font-family="Calibri,Calibri_MSFontService,sans-serif" font-weight="400" font-size="41" transform="matrix(0.707107 -0.707107 0.707107 0.707107 1416.54 1178)">Helsinki-NLP</text></g><g clip-path="url(#clip17)"><text fill="#595959" font-family="Calibri,Calibri_MSFontService,sans-serif" font-weight="400" font-size="41" transform="matrix(0.707107 -0.707107 0.707107 0.707107 1495.49 1246)">hf-internal-testing</text></g><g clip-path="url(#clip18)"><text fill="#595959" font-family="Calibri,Calibri_MSFontService,sans-serif" font-weight="400" font-size="41" transform="matrix(0.707107 -0.707107 0.707107 0.707107 1794.1 1094)">None</text></g><g clip-path="url(#clip19)"><text fill="#595959" font-family="Calibri,Calibri_MSFontService,sans-serif" font-weight="400" font-size="41" transform="matrix(0.707107 -0.707107 0.707107 0.707107 1889.14 1146)">mrm8488</text></g><g clip-path="url(#clip20)"><text fill="#595959" font-family="Calibri,Calibri_MSFontService,sans-serif" font-weight="400" font-size="41" transform="matrix(0.707107 -0.707107 0.707107 0.707107 2056.52 1126)">deepset</text></g><g clip-path="url(#clip21)"><text fill="#595959" font-family="Calibri,Calibri_MSFontService,sans-serif" font-weight="400" font-size="64" transform="matrix(1 0 0 1 1195.5 445)">Number of Models</text></g><rect x="616.5" y="349.5" width="1650" height="990" stroke="#D9D9D9" stroke-width="3.4375" stroke-linejoin="round" stroke-miterlimit="10" fill="none"/></g></svg>